<svg xmlns="http://www.w3.org/2000/svg" version="1.1" xmlns:xlink="http://www.w3.org/1999/xlink" width="512" height="512" x="0" y="0" viewBox="0 0 124 124" style="enable-background:new 0 0 512 512" xml:space="preserve" class=""><g><path d="M6.805 58.551c.111.113.287.266.522.453a85.317 85.317 0 0 1 10.13-17.469 84.536 84.536 0 0 1 12.735-13.547 72.134 72.134 0 0 0-9.008 15.752 72.715 72.715 0 0 0-5.102 19.837c6.788 2.307 16.146 2.872 24.359-5.535C54.628 43.52 38.28 24.811 63.202 8.066c0 0-32.035-8.942-52.476 11.98C-9.717 40.97 5.019 56.755 6.805 58.551zM108.827 74.912s22.206-25.067 12.891-52.966C112.405-5.952 91.894.363 89.513 1.178a6.348 6.348 0 0 0-.633.271c3.594 2.641 10.289 8.348 14.619 18.031a45.42 45.42 0 0 1 3.767 14.622 85.79 85.79 0 0 0-11.752-14.919A85.03 85.03 0 0 0 80.935 7.347c-5.069 5.128-9.752 13.366-6.007 24.576 6.465 19.364 30.272 12.893 33.899 42.989zM97.487 93.979C95.5 87.005 90.638 78.874 79.149 76.8c-19.845-3.583-25.726 20.694-53.475 9.417 0 0 10.957 31.814 39.548 36.978s33.019-16.108 33.46-18.617c.027-.159.053-.392.071-.693a66.632 66.632 0 0 1-20.725 3.18 66.492 66.492 0 0 1-17.705-2.52 83.372 83.372 0 0 0 19.912-3.31 83.85 83.85 0 0 0 17.252-7.256z" fill="#ffffff" opacity="1" data-original="#000000" class=""></path></g></svg>