<svg height="512" viewBox="0 0 128 128" width="512" xmlns="http://www.w3.org/2000/svg"><g><path d="m19.373 115.983h14.643s3.841-48.01-26.67-83.777c0 0 16.108 39.968 12.027 83.777z" fill="#009959"/><path d="m62.439 115.983h16.98s4.454-55.673-30.926-97.149c0 0 18.678 46.347 13.946 97.149z" fill="#007840"/><path d="m76.539 115.983h16.98c-4.732-50.8 13.947-97.149 13.947-97.149-35.381 41.476-30.927 97.149-30.927 97.149z" fill="#009959"/><path d="m50.789 115.983h14.643c-4.081-43.809 12.026-83.777 12.026-83.777-30.51 35.767-26.669 83.777-26.669 83.777z" fill="#10804c"/><path d="m90.91 115.983h14.643c-4.081-43.809 12.027-83.777 12.027-83.777-30.51 35.767-26.67 83.777-26.67 83.777z" fill="#6fbf6b"/><path d="m39.227 115.983h17.334s4.546-56.834-31.571-99.175c0 0 19.067 47.314 14.237 99.175z" fill="#6fbf6b"/><g fill="#a5e887"><path d="m27.92 115.983h16.028c-8.732-58.812 29.436-91.7 29.436-91.7-48.49 20.165-45.464 91.7-45.464 91.7z"/><path d="m69.066 12.017s43.274 37.283 33.374 103.966h18.172s3.431-81.104-51.546-103.966z"/></g></g></svg>