<svg id="Layer_2" enable-background="new 0 0 512 512" viewBox="0 0 512 512" xmlns="http://www.w3.org/2000/svg"><g><g><path d="m235.4 280.2c-48.2 0-92.2-24.4-117.7-65.3-13.7-22-21-47.3-21-73.4 0-37.2 14.5-72.1 40.9-98.3 26.4-26.3 61.4-40.6 98.6-40.4 36.9.2 71.6 14.9 97.8 41.3 26.1 26.4 40.4 61.4 40.1 98.3-.2 25.7-7.4 50.8-21 72.5-25.5 40.9-69.5 65.3-117.7 65.3zm0-249c-29.4 0-57 11.4-77.8 32.1-21 20.9-32.5 48.6-32.5 78.2 0 20.7 5.8 40.9 16.7 58.4 20.3 32.5 55.3 52 93.7 52 38.3 0 73.3-19.4 93.6-52 10.8-17.3 16.6-37.2 16.7-57.6.2-29.4-11.2-57.1-32-78.2-20.8-21-48.4-32.7-77.7-32.9-.2 0-.5 0-.7 0z" fill="#bdc9cd"/></g><g><g><path d="m497.8 445.5h-138.6c-7.8 0-14.2-6.3-14.2-14.2 0-7.8 6.3-14.2 14.2-14.2h138.6c7.8 0 14.2 6.3 14.2 14.2s-6.3 14.2-14.2 14.2z" fill="#54d6a2"/></g><g><g><path d="m422.9 509.2c-3.6 0-7.3-1.4-10-4.2l-63.6-63.6c-5.5-5.5-5.5-14.5 0-20s14.5-5.5 20 0l63.6 63.6c5.5 5.5 5.5 14.5 0 20-2.8 2.8-6.4 4.2-10 4.2z" fill="#54d6a2"/></g><g><path d="m359.2 445.5c-3.6 0-7.3-1.4-10-4.2-5.5-5.5-5.5-14.5 0-20l63.6-63.6c5.5-5.5 14.5-5.5 20 0s5.5 14.5 0 20l-63.6 63.6c-2.7 2.9-6.3 4.2-10 4.2z" fill="#54d6a2"/></g></g></g><g><path d="m235.4 487.5c-79 0-154.6-24.3-218.5-70.3-13.7-9.9-20-27.6-15.5-44 5.8-21.5 14.6-42 26.1-61.2 35.7-59.3 107.7-86.1 175.2-65.1 10.5 3.3 21.6 4.9 32.7 4.9 11.2 0 22.2-1.7 32.7-4.9 57.6-17.9 120.1-.8 159.2 43.4 3.5 4 4.5 9.7 2.5 14.6-2 5-6.6 8.4-11.9 8.9-60.3 5.3-107.5 57-107.5 117.6 0 10.9 1.5 21.7 4.4 32.1 1.1 3.8.5 8-1.6 11.3-2.1 3.4-5.5 5.7-9.5 6.4-22.3 4.2-45.3 6.3-68.3 6.3zm-79-219.3c-42.4 0-82.3 21.4-104.6 58.4-10.2 16.9-17.9 35.1-23 54-1.4 5.1.5 10.6 4.7 13.6 59.1 42.5 128.9 64.9 201.9 64.9 16.3 0 32.6-1.1 48.7-3.4-1.4-8-2-16.2-2-24.4 0-36.8 13.7-72 38.7-99.1 18-19.5 40.6-33.6 65.5-41.1-30.9-22.2-71.6-29-109.8-17.2-13.3 4.1-27.1 6.2-41.1 6.2s-27.8-2.1-41.1-6.2c-12.6-3.8-25.3-5.7-37.9-5.7z" fill="#bdc9cd"/></g></g></svg>