<svg id="Capa_1" enable-background="new 0 0 511.999 511.999" height="512" viewBox="0 0 511.999 511.999" width="512" xmlns="http://www.w3.org/2000/svg"><path d="m324.995 245.154-137.991-45.626h-126.348c-27.897 0-50.721 22.825-50.721 50.721v143.711c0 27.897 22.825 50.722 50.721 50.722 4.805 0 9.382 2.125 12.425 5.844 23.149 28.29 50.636 48.301 69.957 60.258 6.682 4.135 14.549-3.038 11.09-10.094-7.7-15.711-12.909-31.037-16.313-45.53-1.259-5.357 2.849-10.478 8.353-10.478h128.365c27.897 0 50.721-22.825 50.721-50.722v-143.711c-.001-1.719-.09-3.419-.259-5.095z" fill="#ff656f"/><path d="m144.761 478.553c-9.128-8.217-18.295-17.551-26.868-28.028-3.043-3.719-7.619-5.844-12.425-5.844-27.897 0-50.721-22.825-50.721-50.722v-143.71c0-27.897 22.825-50.721 50.721-50.721h-44.812c-27.897 0-50.721 22.825-50.721 50.721v143.711c0 27.897 22.825 50.722 50.721 50.722 4.805 0 9.382 2.125 12.425 5.844 23.149 28.29 50.636 48.301 69.957 60.258 6.682 4.135 14.549-3.038 11.09-10.094-3.669-7.484-6.756-14.876-9.367-22.137z" fill="#ff4756"/><path d="m451.343 0h-213.875c-27.897 0-50.721 22.825-50.721 50.721v143.711c0 27.897 22.825 50.721 50.721 50.721h128.365c5.503 0 9.611 5.121 8.353 10.478-3.404 14.493-8.613 29.819-16.313 45.53-3.458 7.056 4.408 14.229 11.09 10.094 19.32-11.957 46.808-31.968 69.956-60.258 3.043-3.719 7.619-5.844 12.425-5.844 27.897 0 50.721-22.825 50.721-50.721v-143.711c0-27.896-22.825-50.721-50.722-50.721z" fill="#fee55a"/><path d="m231.559 194.432v-143.711c0-27.896 22.825-50.721 50.722-50.721h-44.813c-27.897 0-50.721 22.825-50.721 50.721v143.711c0 27.897 22.825 50.721 50.721 50.721h44.813c-27.897.001-50.722-22.824-50.722-50.721z" fill="#ffd301"/><path d="m418.998 255.632c1.258-5.357-2.85-10.478-8.353-10.478h-44.813c5.503 0 9.611 5.121 8.353 10.478-3.404 14.493-8.613 29.819-16.313 45.53-3.458 7.056 4.408 14.229 11.09 10.094 12.165-7.529 27.569-18.258 43.089-32.23 2.871-7.982 5.165-15.805 6.947-23.394z" fill="#ffd301"/><g fill="#ffc20c"><path d="m456.952 98.487h-111.06c-4.267 0-7.726-3.459-7.726-7.726s3.459-7.726 7.726-7.726h111.059c4.267 0 7.726 3.459 7.726 7.726.001 4.266-3.458 7.726-7.725 7.726z"/><path d="m456.952 130.621h-111.06c-4.267 0-7.726-3.459-7.726-7.726s3.459-7.726 7.726-7.726h111.059c4.267 0 7.726 3.459 7.726 7.726s-3.458 7.726-7.725 7.726z"/><path d="m456.952 66.352h-111.06c-4.267 0-7.726-3.459-7.726-7.726s3.459-7.726 7.726-7.726h111.059c4.267 0 7.726 3.459 7.726 7.726s-3.458 7.726-7.725 7.726z"/><path d="m456.952 162.756h-111.06c-4.267 0-7.726-3.459-7.726-7.726s3.459-7.726 7.726-7.726h111.059c4.267 0 7.726 3.459 7.726 7.726s-3.458 7.726-7.725 7.726z"/><path d="m401.422 194.891h-55.53c-4.267 0-7.726-3.459-7.726-7.726s3.459-7.726 7.726-7.726h55.53c4.267 0 7.726 3.459 7.726 7.726s-3.459 7.726-7.726 7.726z"/></g><path d="m269.664 302.319h-111.06c-4.267 0-7.726-3.459-7.726-7.726 0-4.268 3.459-7.726 7.726-7.726h111.06c4.267 0 7.726 3.459 7.726 7.726s-3.459 7.726-7.726 7.726z" fill="#fc2d39"/><path d="m269.664 334.454h-111.06c-4.267 0-7.726-3.459-7.726-7.726 0-4.268 3.459-7.726 7.726-7.726h111.06c4.267 0 7.726 3.459 7.726 7.726s-3.459 7.726-7.726 7.726z" fill="#fc2d39"/><path d="m189.45 270.184h-30.846c-4.267 0-7.726-3.459-7.726-7.726 0-4.268 3.459-7.726 7.726-7.726h30.846c4.267 0 7.726 3.459 7.726 7.726s-3.459 7.726-7.726 7.726z" fill="#fc2d39"/><path d="m269.664 366.588h-111.06c-4.267 0-7.726-3.459-7.726-7.726 0-4.268 3.459-7.726 7.726-7.726h111.06c4.267 0 7.726 3.459 7.726 7.726 0 4.268-3.459 7.726-7.726 7.726z" fill="#fc2d39"/><path d="m214.134 398.722h-55.53c-4.267 0-7.726-3.459-7.726-7.726 0-4.268 3.459-7.726 7.726-7.726h55.53c4.267 0 7.726 3.459 7.726 7.726s-3.459 7.726-7.726 7.726z" fill="#fc2d39"/><path d="m308.566 113.792c2.727-2.658 1.222-7.29-2.547-7.838l-22.371-3.251c-1.497-.217-2.791-1.157-3.46-2.514l-10.005-20.271c-1.686-3.415-6.556-3.415-8.241 0l-10.005 20.271c-.669 1.356-1.963 2.296-3.46 2.514l-22.371 3.251c-3.769.548-5.274 5.18-2.547 7.838l16.188 15.779c1.083 1.056 1.577 2.577 1.322 4.067l-3.822 22.281c-.644 3.754 3.296 6.616 6.667 4.844l20.009-10.519c1.339-.704 2.938-.704 4.276 0l20.009 10.519c3.371 1.772 7.311-1.09 6.667-4.844l-3.822-22.281c-.256-1.491.239-3.012 1.322-4.067z" fill="#dfebfa"/><path d="m110.989 301.238c-7.309-7.461-19.344-7.459-26.899-.247l-1.346 1.285c-.871.832-2.242.832-3.114 0l-1.346-1.285c-7.555-7.212-19.59-7.214-26.899.247-7.427 7.581-7.204 19.746.449 27.051.545.52 21.731 20.744 27.798 26.535.871.832 2.24.832 3.111 0 6.066-5.791 27.253-26.015 27.798-26.535 7.652-7.305 7.875-19.47.448-27.051z" fill="#dfebfa"/><path d="m308.566 113.792c2.727-2.658 1.222-7.29-2.547-7.838l-22.371-3.251c-1.497-.217-2.791-1.157-3.46-2.514l-10.005-20.271c-1.686-3.415-6.556-3.415-8.241 0l-10.005 20.271c-.669 1.356-1.963 2.296-3.46 2.514l-22.371 3.251c-3.769.548-5.274 5.18-2.547 7.838l16.188 15.779c1.083 1.056 1.577 2.577 1.322 4.067l-3.822 22.281c-.644 3.754 3.296 6.616 6.667 4.844l20.009-10.519c1.339-.704 2.938-.704 4.276 0l20.009 10.519c3.371 1.772 7.311-1.09 6.667-4.844l-3.822-22.281c-.256-1.491.239-3.012 1.322-4.067z" fill="#dfebfa"/><path d="m264.484 149.999 1.481-8.634c.256-1.491-.239-3.012-1.322-4.067l-16.188-15.779c-2.727-2.658-1.222-7.29 2.547-7.838l22.371-3.251c1.497-.217 2.791-1.157 3.46-2.514l3.601-7.296c-.089-.139-.173-.281-.246-.431l-10.005-20.271c-1.686-3.415-6.556-3.415-8.241 0l-10.005 20.271c-.669 1.356-1.963 2.296-3.46 2.514l-22.371 3.251c-3.769.548-5.274 5.18-2.547 7.838l16.188 15.779c1.083 1.056 1.577 2.577 1.322 4.067l-3.821 22.281c-.644 3.754 3.296 6.616 6.667 4.844l20.01-10.519c.181-.096.369-.176.559-.245z" fill="#b1dbfc"/><path d="m67.801 321.76c-7.337-7.003-7.825-18.462-1.311-26.077-5.44-.457-11.013 1.377-15.106 5.555-7.427 7.581-7.204 19.746.449 27.051.545.52 21.731 20.744 27.798 26.535.871.832 2.24.832 3.111 0 2.033-1.941 5.765-5.504 9.848-9.401-8.157-7.786-24.314-23.209-24.789-23.663z" fill="#b1dbfc"/></svg>