<svg id="Capa_1" enable-background="new 0 0 512 512" height="512" viewBox="0 0 512 512" width="512" xmlns="http://www.w3.org/2000/svg"><g><path d="m186.885 354.176 10.302 13.269c0 2.55-9.914 5.014-9.195 7.335 3.152 10.172 12.672 17.616 23.844 17.616h170.537c1.912 0 3.746.759 5.098 2.111l26.002 25.994c2.816 2.815 7.382 2.815 10.197-.001l25.992-25.992c1.352-1.352 3.187-2.112 5.099-2.112h32.286c13.723 0 24.951-11.228 24.951-24.951v-169.96c0-13.717-11.223-24.941-24.941-24.941h-74.894l-9.536 10.302-11.068-10.302z" fill="#9dcffd"/><path d="m412.165 324.135v-151.591h-20.603l-204.677 181.632v13.269c0 2.55.388 5.013 1.107 7.335h173.518c27.932-.001 50.655-22.72 50.655-50.645z" fill="#38acf6"/><path d="m391.561 324.135c0 16.522-13.518 30.04-30.04 30.04h-206.016c-1.913 0-3.747.76-5.099 2.112l-22.427 22.427-15.453 5.151-39.992-29.69h-11.578-4.044c-16.524 0-46.61-13.516-46.61-30.04v-204.707c0-16.524 27.691-30.04 44.216-30.04h6.438 300.555c16.528 0 30.05 13.523 30.05 30.05z" fill="#f0fcff"/><g fill="#dcecff"><path d="m30.905 324.135v-204.707c0-16.524 13.526-30.04 30.05-30.04h-30.905c-16.524 0-30.05 13.516-30.05 30.04v204.707c0 16.524 13.526 30.04 30.05 30.04h30.905c-16.523.001-30.05-13.515-30.05-30.04z"/><path d="m100.453 354.176h-27.918l34.892 34.892c2.816 2.816 7.382 2.816 10.198 0l10.354-10.354-22.427-22.427c-1.352-1.352-3.186-2.111-5.099-2.111z"/></g><g><path d="m288 297.217h-191.998c-4.267 0-7.726-3.459-7.726-7.726s3.459-7.726 7.726-7.726h191.998c4.267 0 7.726 3.459 7.726 7.726s-3.459 7.726-7.726 7.726z" fill="#bedaff"/></g><g><path d="m320 265.218h-255.998c-4.267 0-7.726-3.459-7.726-7.726s3.459-7.726 7.726-7.726h255.998c4.267 0 7.726 3.459 7.726 7.726s-3.459 7.726-7.726 7.726z" fill="#bedaff"/></g><g><path d="m479.998 265.218h-47.999c-4.267 0-7.726-3.459-7.726-7.726s3.459-7.726 7.726-7.726h47.999c4.267 0 7.726 3.459 7.726 7.726s-3.459 7.726-7.726 7.726z" fill="#dcecff"/></g><g><path d="m479.998 297.217h-47.999c-4.267 0-7.726-3.459-7.726-7.726s3.459-7.726 7.726-7.726h47.999c4.267 0 7.726 3.459 7.726 7.726s-3.459 7.726-7.726 7.726z" fill="#dcecff"/></g><g><path d="m479.998 329.217h-47.999c-4.267 0-7.726-3.459-7.726-7.726s3.459-7.726 7.726-7.726h47.999c4.267 0 7.726 3.459 7.726 7.726s-3.459 7.726-7.726 7.726z" fill="#dcecff"/></g><g><g><path d="m199.897 143.995 8.086 16.385c.669 1.355 1.961 2.294 3.456 2.511l18.082 2.627c3.765.547 5.268 5.174 2.544 7.829l-13.084 12.754c-1.082 1.054-1.575 2.574-1.32 4.063-19.146 12.41-34.389 2.794-47.862-16.817-2.724-2.655 11.065-3.087 13.78-12.968l8.086-16.385c1.683-3.411 6.548-3.411 8.232.001z" fill="#fcdf65"/><path d="m217.661 190.164 3.089 18.009c.643 3.75-3.293 6.609-6.66 4.839l-16.173-8.503c-1.337-.703-2.935-.703-4.272 0l-16.173 8.503c-3.367 1.77-7.303-1.089-6.66-4.839l3.089-18.009c.255-1.489-.238-3.008-1.32-4.063l-13.084-12.754c-2.724-2.655-1.221-7.282 2.544-7.829l18.082-2.627c1.495-.217 2.787-1.156 3.456-2.511 1.32 17.112 14.454 30.827 34.082 29.784z" fill="#ffca2a"/></g><g><path d="m89.816 143.995 8.086 16.385c.669 1.355 1.961 2.294 3.456 2.511l18.082 2.627c3.765.547 5.268 5.174 2.544 7.829l-13.084 12.754c-1.082 1.054-1.575 2.574-1.32 4.063-19.146 12.41-34.389 2.794-47.862-16.817-2.724-2.655 11.065-3.087 13.78-12.968l8.086-16.385c1.683-3.411 6.548-3.411 8.232.001z" fill="#fcdf65"/><path d="m107.58 190.164 3.089 18.009c.643 3.75-3.293 6.609-6.66 4.839l-16.173-8.503c-1.337-.703-2.935-.703-4.272 0l-16.173 8.503c-3.367 1.77-7.303-1.089-6.66-4.839l3.089-18.009c.255-1.489-.238-3.008-1.32-4.063l-13.084-12.754c-2.724-2.655-1.221-7.282 2.544-7.829l18.082-2.627c1.495-.217 2.787-1.156 3.456-2.511 1.32 17.112 14.454 30.827 34.082 29.784z" fill="#ffca2a"/></g><g><path d="m309.978 143.995 8.086 16.385c.669 1.355 1.961 2.294 3.456 2.511l18.082 2.627c3.765.547 5.268 5.174 2.544 7.829l-13.084 12.754c-1.082 1.054-1.575 2.574-1.32 4.063-19.146 12.41-34.389 2.794-47.862-16.817-2.724-2.655 11.065-3.087 13.78-12.968l8.086-16.385c1.683-3.411 6.548-3.411 8.232.001z" fill="#fcdf65"/><path d="m327.741 190.164 3.089 18.009c.643 3.75-3.293 6.609-6.66 4.839l-16.173-8.503c-1.337-.703-2.935-.703-4.272 0l-16.173 8.503c-3.367 1.77-7.303-1.089-6.66-4.839l3.089-18.009c.255-1.489-.238-3.008-1.32-4.063l-13.084-12.754c-2.724-2.655-1.221-7.282 2.544-7.829l18.082-2.627c1.495-.217 2.787-1.156 3.456-2.511 1.32 17.112 14.455 30.827 34.082 29.784z" fill="#ffca2a"/></g></g></g></svg>