<svg id="Capa_1" enable-background="new 0 0 512 512" height="512" viewBox="0 0 512 512" width="512" xmlns="http://www.w3.org/2000/svg" xmlns:xlink="http://www.w3.org/1999/xlink"><linearGradient id="SVGID_1_" gradientUnits="userSpaceOnUse" x1="191.166" x2="216.263" y1="246.011" y2="202.542"><stop offset=".0319" stop-color="#a996eb"/><stop offset=".2213" stop-color="#bfb3eb"/><stop offset=".4108" stop-color="#d1c9eb"/><stop offset=".5321" stop-color="#d7d1eb"/><stop offset="1" stop-color="#e9e5f6"/></linearGradient><linearGradient id="SVGID_2_" gradientUnits="userSpaceOnUse" x1="269.658" x2="269.658" y1="459.959" y2="-179.595"><stop offset="0" stop-color="#dfdaef"/><stop offset="1" stop-color="#fff"/></linearGradient><linearGradient id="lg1"><stop offset="0" stop-color="#7662bd"/><stop offset="1" stop-color="#7662bd" stop-opacity="0"/></linearGradient><linearGradient id="SVGID_3_" gradientUnits="userSpaceOnUse" x1="291.501" x2="291.501" xlink:href="#lg1" y1="268.287" y2="395.654"/><linearGradient id="SVGID_4_" gradientUnits="userSpaceOnUse" x1="213.845" x2="213.845" xlink:href="#lg1" y1="289.198" y2="416.565"/><linearGradient id="SVGID_5_" gradientUnits="userSpaceOnUse" x1="266.596" x2="322.228" y1="256.713" y2="151.631"><stop offset="0" stop-color="#a996eb"/><stop offset=".4278" stop-color="#bbadeb"/><stop offset="1" stop-color="#d7d1eb"/></linearGradient><linearGradient id="SVGID_6_" gradientUnits="userSpaceOnUse" x1="235.787" x2="246.604" y1="274.409" y2="255.673"><stop offset="0" stop-color="#0072bc"/><stop offset="1" stop-color="#0197f8"/></linearGradient><linearGradient id="SVGID_7_" gradientUnits="userSpaceOnUse" x1="251.011" x2="251.011" y1="354.188" y2="269.329"><stop offset="0" stop-color="#2f97f7"/><stop offset="1" stop-color="#59acf9"/></linearGradient><g><g><path d="m405.612 17.419-27.432-15.971c-3.141-2.056-7.338-2-11.951.663l-247.773 143.052c-9.729 5.618-17.617 20.688-17.617 33.661v251.858c0 7.664 2.754 12.879 7.013 14.708l19.039 11.072 6.601 3.864 9.695.803v29.38c0 2.268 1.169 3.958 2.765 4.894l-.007.008 27.412 15.814z" fill="url(#SVGID_1_)"/><path d="m393.544 18.001-247.773 143.052c-9.729 5.617-17.617 20.688-17.617 33.661v251.858c0 12.973 7.887 18.935 17.617 13.318l24.732-14.279v60.666c0 5.857 7.763 7.922 10.673 2.839l59.59-104.072 152.777-88.206c9.729-5.617 17.617-20.688 17.617-33.66v-251.859c.001-12.973-7.887-18.935-17.616-13.318z" fill="url(#SVGID_2_)"/><g><path d="m344.662 221.26c-1.936-7.954-7.744-10.132-17.037-6.537s-30.866 17.821-30.866 17.821 2.821-28.402-1.659-40.64c-4.481-12.238-14.271-13.693-22.735-10.107-8.463 3.586-6.803 17.868-6.97 24.38-.159 6.241-1.08 47.061-24.38 74.96-1.961 2.348-3.168 5.737-3.168 8.621v89.716c0 4.114 2.502 6.005 5.587 4.224l75.432-43.551c4.901-2.83 9.371-9.416 11.007-16.52.025-.11.051-.221.075-.333 2.49-11.173.913-16.292.913-16.292s6.691-10.773 8.042-18.625c1.832-10.64-.201-16.436-.201-16.436s4.522-8.198 5.518-16.296-1.992-12.956-1.992-12.956 4.37-13.475 2.434-21.429z" fill="url(#SVGID_3_)"/><path d="m224.958 285.946-22.225 12.831c-3.086 1.782-5.587 6.561-5.587 10.675v93.521c0 4.114 2.501 6.005 5.587 4.224l22.225-12.831c3.085-1.781 5.587-6.561 5.587-10.675v-93.521c0-4.115-2.502-6.006-5.587-4.224z" fill="url(#SVGID_4_)"/></g></g><path d="m344.227 195.475 33.079-19.84-37.137-21.432c-.13-.078-.259-.157-.393-.227l-.169-.098-.003.018c-2.929-1.45-6.936-1.214-11.98.737-1.778.688-4.006 1.766-6.446 3.058l3.39-14.415-37.534-21.651-.003.014c-4.486-2.374-9.795-1.997-14.668.068-8.463 3.586-6.803 17.868-6.97 24.38-.159 6.241-1.08 47.061-24.38 74.96-1.961 2.348-3.168 5.737-3.168 8.621v89.716c0 2.206.733 3.743 1.876 4.448l-.008.033 37.317 21.536 11.21-47.663 30.624-17.681c4.901-2.829 9.371-9.416 11.007-16.52.025-.11.05-.221.075-.333 2.489-11.173.913-16.292.913-16.292s6.691-10.773 8.042-18.625c1.832-10.64-.202-16.436-.202-16.436s4.522-8.198 5.518-16.296c.005-.026.006-.052.01-.08z" fill="url(#SVGID_5_)"/><path d="m280.598 345.062 75.432-43.551c4.901-2.829 9.371-9.416 11.007-16.52.025-.11.051-.221.075-.333 2.489-11.173.913-16.292.913-16.292s6.691-10.773 8.042-18.626c1.832-10.64-.202-16.436-.202-16.436s4.522-8.198 5.518-16.296-1.991-12.956-1.991-12.956 4.37-13.475 2.434-21.43c-1.936-7.954-7.745-10.132-17.037-6.537-9.293 3.595-30.866 17.821-30.866 17.821s2.821-28.402-1.659-40.64c-4.481-12.238-14.272-13.693-22.735-10.107s-6.804 17.868-6.97 24.38c-.159 6.241-1.08 47.062-24.38 74.96-1.961 2.348-3.168 5.737-3.168 8.62v89.716c0 4.117 2.502 6.008 5.587 4.227z" fill="#fff"/><path d="m228.622 225.567-.009.036c-.982-.575-2.251-.558-3.655.253l-22.225 12.831c-3.086 1.782-5.587 6.561-5.587 10.675v93.521c0 2.308.804 3.881 2.04 4.534l-.009.039 37.128 21.432 29.475-121.867z" fill="url(#SVGID_6_)"/><path d="m239.898 368.56 22.225-12.831c3.085-1.781 5.587-6.561 5.587-10.675v-93.521c0-4.114-2.502-6.005-5.587-4.224l-22.225 12.831c-3.086 1.782-5.587 6.561-5.587 10.675v93.521c.001 4.115 2.502 6.006 5.587 4.224z" fill="url(#SVGID_7_)"/></g></svg>