<svg xmlns="http://www.w3.org/2000/svg" version="1.1" xmlns:xlink="http://www.w3.org/1999/xlink" width="512" height="512" x="0" y="0" viewBox="0 0 512 512" style="enable-background:new 0 0 512 512" xml:space="preserve"><g><circle cx="208.379" cy="119.054" r="119.054" fill="#a16bff" opacity="1" data-original="#000000"></circle><path d="m390.052 360.253-26.665 26.903-9.284-9.045c-13.335-13.568-31.432-20.951-50.482-20.951s-36.908 7.383-50.482 20.951c-26.903 26.903-27.857 70.246-2.378 98.103H89.325c-39.285 0-71.432-32.147-71.432-71.432 0-65.712 53.336-119.054 119.054-119.054h142.864c50.005.001 92.859 30.717 110.241 74.525z" fill="#a16bff" opacity="1" data-original="#000000"></path><path d="M363.334 512a23.81 23.81 0 0 1-16.835-6.973l-59.655-59.655c-9.301-9.301-9.301-24.375 0-33.676 9.301-9.295 24.369-9.295 33.67 0l42.796 42.799 90.127-90.337c9.278-9.307 24.369-9.336 33.67-.038 9.313 9.287 9.336 24.363.047 33.673L380.192 505.007A23.815 23.815 0 0 1 363.345 512z" fill="#a16bff" opacity="1" data-original="#000000"></path></g></svg>