<svg xmlns="http://www.w3.org/2000/svg" version="1.1" xmlns:xlink="http://www.w3.org/1999/xlink" width="512" height="512" x="0" y="0" viewBox="0 0 512 512" style="enable-background:new 0 0 512 512" xml:space="preserve" class=""><g><path d="M452 0H216c-33.084 0-60 26.916-60 60v60h40V60c0-11.028 8.972-20 20-20h236c11.028 0 20 8.972 20 20v232c0 11.028-8.972 20-20 20h-56v40h56c33.084 0 60-26.916 60-60V60c0-33.084-26.916-60-60-60zM296 160H60c-33.084 0-60 26.916-60 60v232c0 33.084 26.916 60 60 60h236c33.084 0 60-26.916 60-60V220c0-33.084-26.916-60-60-60zm20 292c0 11.028-8.972 20-20 20H60c-11.028 0-20-8.972-20-20V220c0-11.028 8.972-20 20-20h236c11.028 0 20 8.972 20 20z" fill="#9966cc" opacity="1" data-original="#000000"></path></g></svg>