<svg xmlns="http://www.w3.org/2000/svg" version="1.1" xmlns:xlink="http://www.w3.org/1999/xlink" width="512" height="512" x="0" y="0" viewBox="0 0 105 105" style="enable-background:new 0 0 512 512" xml:space="preserve" class=""><g><path fill="#364f66" d="M19.087 23.167a.2.2 0 0 1-.2-.2v-5a.2.2 0 0 1 .4 0v5a.2.2 0 0 1-.2.2zM17.294 23.823a.2.2 0 0 1-.2-.2V12.966a.2.2 0 0 1 .4 0v10.657a.2.2 0 0 1-.2.2zM15.409 24.667a.2.2 0 0 1-.2-.2V15.84a.2.2 0 0 1 .4 0v8.625a.2.2 0 0 1-.2.2zM13.393 25.375a.2.2 0 0 1-.2-.2v-4.709a.2.2 0 0 1 .4 0v4.708a.2.2 0 0 1-.2.2zM36.6 13.919c-.027 0-.054-.001-.08-.003-1.346-.073-2.277-1.977-2.316-2.058-.323-.408-.69-.636-1.112-.611-.937.03-1.759 1.226-1.767 1.238a.2.2 0 1 1-.33-.225c.038-.055.946-1.375 2.085-1.413.542-.023 1.033.251 1.462.8.03.055.89 1.81 2 1.87.542.031 1.116-.39 1.65-1.25a.2.2 0 1 1 .34.21c-.594.958-1.243 1.442-1.932 1.442zM75.588 92.122a.2.2 0 0 1-.199-.186c-.005-.068-.1-1.667.775-2.397.416-.347.968-.438 1.646-.268.058.024 1.817.881 2.727.245.46-.322.64-.994.533-2a.2.2 0 0 1 .178-.22c.123-.014.209.068.22.178.123 1.162-.113 1.96-.704 2.37-1.104.77-3.012-.16-3.092-.2-.506-.121-.94-.058-1.25.201-.72.599-.635 2.05-.634 2.064a.2.2 0 0 1-.187.213h-.013zM95.886 32.028c-.955 0-1.731-.776-1.731-1.73s.776-1.731 1.731-1.731c.954 0 1.73.776 1.73 1.73s-.776 1.731-1.73 1.731zm0-3.061c-.734 0-1.33.597-1.33 1.33s.596 1.331 1.33 1.331a1.332 1.332 0 0 0 0-2.661zM90.008 75.912a.2.2 0 0 1-.2-.2v-3.014c-.668.01-2.75.035-3.165-.004a.2.2 0 0 1-.18-.217c.01-.11.088-.191.217-.181.46.043 3.296 0 3.325-.001.058-.017.105.02.144.058a.2.2 0 0 1 .06.142v3.217a.2.2 0 0 1-.2.2zM94.766 14.303a.2.2 0 0 1-.2-.2V11.09c-.669.01-2.75.035-3.164-.003a.2.2 0 0 1 .037-.399c.46.044 3.295 0 3.324 0h.003a.2.2 0 0 1 .2.2v3.215a.2.2 0 0 1-.2.2zM9.114 89.27c-.954 0-1.73-.777-1.73-1.732 0-.954.776-1.73 1.73-1.73s1.73.776 1.73 1.73c0 .955-.776 1.731-1.73 1.731zm0-3.062c-.734 0-1.33.597-1.33 1.33 0 .734.596 1.33 1.33 1.33a1.331 1.331 0 0 0 0-2.66zM17.24 60.17a.2.2 0 0 1-.2-.2l-.022-7.38a.197.197 0 0 1-.01-.06l-.02-8.97c-.01-3.86 2.713-8.576 6.07-10.514l38.519-22.238a.2.2 0 0 1 .2.347l-38.52 22.238c-3.246 1.874-5.879 6.434-5.869 10.166l.02 8.911c.007.019.01.039.01.06l.022 7.44a.2.2 0 0 1-.2.2z" opacity="1" data-original="#364f66" class=""></path><path fill="#364f66" d="M25.765 100.261a.205.205 0 0 1-.065-.01l-5.242-1.808c-1.971-.68-3.305-2.474-3.32-4.465v-.058l-.09-30.7a.2.2 0 0 1 .2-.2c.11 0 .2.089.2.199l.09 30.757c.013 1.821 1.239 3.465 3.051 4.09l4.372 1.506c-.52-.779-.643-1.98-.643-3.552l5.968-51.453-3.63-.228a.2.2 0 0 1-.187-.211c.196-3.163 1.247-4.853 4.019-6.46l44.195-23.914a.199.199 0 0 1 .243.042c.662.735 1.203 1.023 1.624.843 1.227-.52 1.506-4.83 1.316-7.79l-2.638-1.536c-1.074-.62-2.517-.472-4.06.42L63.96 9.894a.2.2 0 0 1-.2-.347l7.21-4.16c1.672-.967 3.256-1.114 4.46-.42l2.73 1.59a.197.197 0 0 1 .098.159c.006.074.488 7.428-1.551 8.291-.563.238-1.225-.04-1.97-.827L30.683 38.016c-2.57 1.491-3.583 3.06-3.802 5.937l3.64.227a.2.2 0 0 1 .186.223l-5.99 51.64c.001 1.903.196 3.298 1.148 3.845a.2.2 0 0 1-.1.374z" opacity="1" data-original="#364f66" class=""></path><path fill="#1c323d" d="m25.11 100.061-2.728-1.588c-1.078-.626-1.743-1.954-1.747-3.845l-.151-50.362 13.316.825-5.985 51.64c.003 1.891-3.778 2.703-2.705 3.33z" opacity="1" data-original="#1c323d" class=""></path><path fill="#c962fc" d="m23.237 54.823-2.73-1.587 59.89-34.577 2.73 1.586z" opacity="1" data-original="#fbd46c" class=""></path><path fill="#324566" d="m23.237 54.823 59.89-34.578.126 41.394c.01 3.802-2.663 8.432-5.972 10.343l-47.91 27.66c-3.306 1.91-5.997.376-6.008-3.426z" opacity="1" data-original="#324566" class=""></path><path fill="#26404f" d="M83.252 61.638c.01 3.803-2.662 8.433-5.971 10.345l-47.91 27.66c-3.306 1.909-5.996.377-6.007-3.425l-.12-38.65c2.789-1.267 5.863-1.961 8.919-2.33 4.535-.55 9.123-.448 13.675-.821 3.007-.247 6.64-1.26 7.292-4.204.3-1.352-.158-2.757-.039-4.134.222-2.51 2.374-4.5 4.736-5.38 2.36-.877 4.94-.89 7.458-1.035.658-.039 1.348-.099 1.904-.45 1.032-.656 1.25-2.071 1.138-3.29-.19-2.077-1.028-4.112-1.75-6.126l16.548-9.552z" opacity="1" data-original="#26404f" class=""></path><path fill="#364f66" d="M87.096 59.351a.2.2 0 0 1-.2-.2l-.09-25.843a.2.2 0 0 1 .2-.201c.11 0 .2.09.2.2l.09 25.844a.2.2 0 0 1-.199.2zM86.995 30.334a.2.2 0 0 1-.2-.2l-.026-7.4a.2.2 0 0 1 .2-.201c.11 0 .2.09.2.2l.026 7.4a.2.2 0 0 1-.2.201z" opacity="1" data-original="#364f66" class=""></path><path fill="#8039f9" d="M81.354 7.437c.209 3.054.018 10.871-3.278 7.198L33.888 38.548c-3.306 1.908-3.972 3.947-3.96 7.746l-6.69 8.528-2.73-1.585-.024-8.971c-.014-3.8 2.662-8.43 5.968-10.338l47.91-27.66c1.665-.961 3.172-1.05 4.263-.42z" opacity="1" data-original="#d89a1e" class=""></path><path fill="#c962fc" d="M77.09 7.854c3.31-1.91 6-.377 6.011 3.423l.026 8.968-59.89 34.578-.025-8.97c-.01-3.799 2.662-8.429 5.97-10.338z" opacity="1" data-original="#fbd46c" class=""></path><path fill="#ca5fff" d="M83.125 20.246 23.237 54.822l-.024-8.968c-.007-2.447 1.098-5.24 2.774-7.426 2.824-.908 5.852-1.229 8.792-1.778 3.824-.711 7.817-1.982 10.274-5.003.997-1.222 1.683-2.673 2.658-3.912a10.563 10.563 0 0 1 6.233-3.789c2.971-.57 6.478.022 8.654-2.084 1.271-1.232 1.764-3.169 3.208-4.2 2.088-1.49 5.323-.497 7.267-2.17 1.672-1.436 1.426-3.865 1.503-6.186l2.514-1.45c3.31-1.912 6-.38 6.01 3.422z" opacity="1" data-original="#f9c539" class=""></path><path fill="#8039f9" d="M28.905 41.802c1.097-.633 1.995-.139 1.998 1.12.004 1.26-.889 2.806-1.985 3.439-1.088.628-1.978.112-1.982-1.148-.004-1.26.881-2.783 1.97-3.411z" opacity="1" data-original="#d89a1e" class=""></path><path fill="#ffffff" d="M29.742 41.938c1.096-.633 1.994-.14 1.998 1.12.003 1.26-.89 2.806-1.985 3.438-1.089.629-1.98.112-1.983-1.147-.003-1.26.881-2.783 1.97-3.411z" opacity="1" data-original="#ffffff" class=""></path><path fill="#8039f9" d="M35.276 38.116c1.096-.633 1.994-.139 1.998 1.12.004 1.26-.889 2.806-1.985 3.439-1.088.628-1.979.112-1.982-1.148-.004-1.26.88-2.783 1.97-3.411z" opacity="1" data-original="#d89a1e" class=""></path><path fill="#ffffff" d="M36.113 38.252c1.096-.633 1.994-.139 1.997 1.12.004 1.26-.888 2.806-1.985 3.438-1.088.629-1.978.112-1.982-1.147-.004-1.26.881-2.783 1.97-3.411z" opacity="1" data-original="#ffffff" class=""></path><path fill="#8039f9" d="M41.647 34.43c1.096-.633 1.994-.139 1.998 1.12.003 1.26-.889 2.806-1.985 3.439-1.088.628-1.979.112-1.983-1.148-.003-1.259.882-2.783 1.97-3.41z" opacity="1" data-original="#d89a1e" class=""></path><path fill="#ffffff" d="M42.483 34.566c1.096-.633 1.995-.139 1.998 1.12.004 1.26-.889 2.806-1.985 3.439-1.088.628-1.979.111-1.982-1.148-.004-1.26.881-2.783 1.97-3.411z" opacity="1" data-original="#ffffff" class=""></path><path fill="#162830" d="M75.205 42.122c1.451-.838 2.633-.164 2.638 1.511.005 1.668-1.17 3.702-2.62 4.54L51.936 61.617c-1.45.838-2.633.164-2.638-1.503-.004-1.676 1.17-3.71 2.621-4.548zM75.18 31.456c1.45-.838 2.632-.164 2.637 1.511.005 1.668-1.17 3.702-2.62 4.54L51.91 50.95c-1.45.838-2.633.164-2.638-1.503-.004-1.676 1.17-3.71 2.62-4.548zM37.297 51.398c5.2-3.003 9.445-.584 9.462 5.392.017 5.975-4.2 13.28-9.4 16.282-5.2 3.002-9.445.583-9.462-5.392-.017-5.976 4.2-13.28 9.4-16.282z" opacity="1" data-original="#162830" class=""></path><path fill="#ffffff" d="M38.463 51.73c5.2-3.002 9.446-.583 9.463 5.393.017 5.975-4.2 13.28-9.401 16.282-5.2 3.002-9.444.583-9.461-5.391-.017-5.976 4.2-13.281 9.4-16.283z" opacity="1" data-original="#ffffff" class=""></path><path fill="#dbe7fe" d="M47.925 57.124c.018 5.975-4.2 13.278-9.4 16.28-5.2 3.003-9.445.584-9.46-5.39-.007-2.1.51-4.364 1.408-6.548.454.038.907.058 1.362.047 1.787-.045 3.731-.743 4.533-2.34.432-.862.503-1.924 1.165-2.625 1.364-1.447 4.117-.336 5.574-1.688 1.077-.998.831-2.744 1.217-4.162 2.185.73 3.593 2.989 3.601 6.426z" opacity="1" data-original="#dbe7fe" class=""></path><path fill="#aac4e8" d="M37.842 55.636c1.13-.652 2.05-.128 2.054 1.17.004 1.3-.91 2.882-2.04 3.535-1.13.652-2.05.128-2.054-1.172-.004-1.298.91-2.88 2.04-3.533zM37.765 61.439c2.57-1.484 4.712-.571 5.136 2.006.08.483-.283 1.173-.75 1.442l-8.74 5.046c-.476.275-.832-.017-.751-.605.419-3.05 2.542-6.41 5.105-7.89z" opacity="1" data-original="#aac4e8"></path><path fill="#324566" d="M38.557 55.709c1.13-.653 2.05-.128 2.053 1.17.004 1.3-.91 2.882-2.04 3.535-1.13.652-2.05.128-2.054-1.172-.003-1.298.91-2.88 2.04-3.533z" opacity="1" data-original="#324566" class=""></path><path fill="#26404f" d="M40.61 56.878c.004 1.3-.91 2.882-2.04 3.535s-2.05.129-2.054-1.171a3.27 3.27 0 0 1 .111-.836c.458.008.977.027 1.248-.332.222-.291.183-.745.462-.982.315-.266.906-.135 1.094-.502.183-.354-.228-.734-.28-1.123.84-.195 1.457.35 1.46 1.411z" opacity="1" data-original="#26404f" class=""></path><path fill="#324566" d="M38.479 61.512c2.57-1.485 4.712-.572 5.137 2.005.08.484-.284 1.173-.75 1.443l-8.74 5.046c-.477.275-.832-.017-.752-.605.42-3.05 2.543-6.41 5.105-7.89z" opacity="1" data-original="#324566" class=""></path><path fill="#26404f" d="m42.865 64.96-8.739 5.045c-.477.276-.833-.016-.752-.604.216-1.571.885-3.226 1.833-4.664l1.114-.059c.331-.018.675-.039.967-.198.64-.348.806-1.222 1.389-1.662.404-.304.945-.35 1.453-.344.253.002.52.012.741-.112.353-.2.455-.656.466-1.06.004-.151.003-.305.008-.457 1.176.214 2.02 1.155 2.27 2.672.08.485-.283 1.174-.75 1.443z" opacity="1" data-original="#26404f" class=""></path><path fill="#ffffff" d="M75.955 42.747c1.451-.838 2.633-.164 2.638 1.511.005 1.668-1.17 3.702-2.62 4.54L52.686 62.242c-1.45.838-2.633.164-2.638-1.503-.004-1.676 1.17-3.71 2.621-4.548zM75.93 32.08c1.45-.837 2.632-.163 2.637 1.512.005 1.668-1.17 3.702-2.62 4.54L52.66 51.576c-1.45.838-2.633.164-2.638-1.503-.004-1.676 1.17-3.71 2.62-4.548z" opacity="1" data-original="#ffffff" class=""></path><path fill="#324566" d="M54.515 45.76c.076-.044.141-.053.197-.023.056.028.085.085.085.172 0 .03-.05.438-.147 1.228.5-.756.76-1.147.786-1.175a.392.392 0 0 1 .131-.12c.1-.058.18-.05.245.02a.29.29 0 0 1 .038.14c0 .122-.043.24-.13.357l-.937.962.938-.123c.088.008.132.072.133.194 0 .05-.013.112-.037.184a.638.638 0 0 1-.254.308.227.227 0 0 1-.122.037c-.025.001-.287-.088-.79-.266.102.675.154 1.027.154 1.055a.521.521 0 0 1-.084.27.55.55 0 0 1-.197.204c-.074.043-.14.052-.196.022-.057-.027-.084-.085-.085-.172 0-.027.048-.437.146-1.227-.498.755-.76 1.147-.784 1.174a.462.462 0 0 1-.123.104c-.107.062-.191.056-.254-.014a.261.261 0 0 1-.037-.151.5.5 0 0 1 .13-.336l.937-.96-.939.12c-.088-.007-.132-.07-.132-.193a.612.612 0 0 1 .28-.498.22.22 0 0 1 .132-.03c.024-.001.288.087.788.266a34.685 34.685 0 0 1-.151-1.056c0-.087.026-.176.083-.27a.55.55 0 0 1 .196-.203zM58.426 43.502c.074-.043.14-.052.196-.022.057.027.084.085.085.172 0 .03-.048.437-.147 1.228.5-.756.76-1.147.785-1.175a.391.391 0 0 1 .132-.12c.1-.058.182-.052.245.02a.29.29 0 0 1 .037.14c0 .122-.043.24-.13.357l-.937.962.939-.123c.088.008.132.072.132.194 0 .05-.013.112-.036.184a.628.628 0 0 1-.253.307.234.234 0 0 1-.123.038c-.026 0-.288-.088-.79-.266.103.674.153 1.027.153 1.054a.509.509 0 0 1-.083.27.55.55 0 0 1-.196.204c-.075.044-.141.053-.197.023-.058-.027-.085-.085-.085-.172 0-.027.048-.437.147-1.228-.5.756-.762 1.148-.786 1.175a.462.462 0 0 1-.123.104c-.106.062-.19.056-.253-.015a.261.261 0 0 1-.038-.15.5.5 0 0 1 .13-.336l.937-.96-.938.12c-.088-.007-.132-.07-.133-.193a.617.617 0 0 1 .28-.498.22.22 0 0 1 .133-.031c.023 0 .287.088.79.266a32.06 32.06 0 0 1-.154-1.055c0-.087.026-.176.084-.27a.551.551 0 0 1 .197-.204zM62.335 41.245c.074-.043.14-.052.196-.022.057.027.085.085.085.172 0 .03-.048.437-.147 1.228.5-.756.762-1.148.787-1.176a.378.378 0 0 1 .13-.12c.101-.058.182-.05.245.022a.27.27 0 0 1 .038.139c0 .122-.044.24-.131.357l-.937.962.94-.123c.087.008.131.071.132.194 0 .05-.012.111-.037.184a.628.628 0 0 1-.253.307.227.227 0 0 1-.121.037c-.025 0-.29-.088-.791-.265.103.674.153 1.027.153 1.054a.509.509 0 0 1-.084.27.55.55 0 0 1-.195.204c-.076.044-.142.053-.198.023-.056-.028-.085-.085-.085-.172 0-.027.05-.438.147-1.228-.5.756-.76 1.147-.785 1.175a.451.451 0 0 1-.122.103c-.108.063-.192.057-.255-.014a.277.277 0 0 1-.037-.15.5.5 0 0 1 .13-.336l.937-.96-.94.12c-.087-.007-.131-.07-.131-.193a.617.617 0 0 1 .28-.498.22.22 0 0 1 .132-.031c.025-.001.287.088.79.266a39.802 39.802 0 0 1-.154-1.055c0-.087.029-.177.084-.27a.551.551 0 0 1 .197-.204zM66.244 38.988c.075-.043.14-.052.198-.023.056.028.085.085.085.172 0 .03-.05.438-.147 1.228.498-.755.76-1.147.786-1.176a.377.377 0 0 1 .13-.12c.1-.058.182-.05.244.022a.27.27 0 0 1 .038.14c0 .122-.043.24-.13.357l-.937.962.939-.123c.087.008.132.071.132.193 0 .05-.012.112-.037.185a.628.628 0 0 1-.252.307.227.227 0 0 1-.122.037c-.025 0-.289-.088-.79-.266.102.675.154 1.027.154 1.054a.521.521 0 0 1-.084.27.562.562 0 0 1-.197.205c-.076.044-.142.053-.197.023-.056-.028-.085-.085-.085-.172 0-.028.05-.439.147-1.229-.5.757-.76 1.148-.786 1.176a.444.444 0 0 1-.121.103c-.107.061-.191.056-.254-.015a.258.258 0 0 1-.04-.15.5.5 0 0 1 .132-.335l.936-.96-.939.12c-.088-.007-.132-.07-.132-.193a.612.612 0 0 1 .28-.498.22.22 0 0 1 .132-.031c.026-.001.288.088.79.266a39.742 39.742 0 0 1-.153-1.055c0-.087.028-.177.083-.27a.55.55 0 0 1 .197-.204zM70.154 36.73c.074-.042.14-.051.197-.022.056.028.085.085.085.172 0 .029-.049.438-.146 1.228.497-.755.76-1.147.785-1.176a.38.38 0 0 1 .132-.12c.099-.058.18-.05.243.022a.27.27 0 0 1 .037.14c0 .122-.043.24-.129.356l-.936.962.939-.123c.086.008.13.072.13.194 0 .05-.011.112-.036.185a.628.628 0 0 1-.253.306.227.227 0 0 1-.121.038c-.026 0-.29-.088-.79-.267.102.676.153 1.028.153 1.055a.522.522 0 0 1-.083.27.562.562 0 0 1-.197.205c-.076.044-.14.052-.198.023-.056-.028-.085-.085-.085-.173 0-.027.05-.438.147-1.228-.498.756-.76 1.148-.786 1.176a.444.444 0 0 1-.121.103c-.106.061-.19.056-.253-.015a.258.258 0 0 1-.04-.15.5.5 0 0 1 .131-.335l.937-.96-.94.12c-.087-.007-.131-.07-.132-.193a.612.612 0 0 1 .28-.498.22.22 0 0 1 .133-.031c.025-.001.289.087.79.266a39.662 39.662 0 0 1-.154-1.055c0-.087.028-.177.084-.27a.556.556 0 0 1 .197-.205zM74.063 34.473c.076-.043.142-.052.198-.022.056.027.085.085.085.172 0 .029-.05.438-.147 1.228.498-.755.76-1.148.785-1.176a.38.38 0 0 1 .132-.12c.1-.058.18-.05.243.022.026.044.04.088.04.139 0 .122-.044.24-.131.357l-.937.962.94-.123c.087.007.131.071.131.193a.628.628 0 0 1-.29.492.227.227 0 0 1-.122.038c-.025 0-.289-.088-.79-.267.102.675.154 1.028.154 1.055a.522.522 0 0 1-.084.27.551.551 0 0 1-.197.205c-.074.043-.14.052-.198.023-.055-.028-.084-.085-.085-.173 0-.027.05-.438.147-1.228-.498.756-.76 1.148-.785 1.176a.444.444 0 0 1-.122.103c-.106.061-.19.056-.253-.015a.261.261 0 0 1-.038-.15.5.5 0 0 1 .131-.337l.937-.96-.94.121c-.087-.007-.131-.071-.132-.193a.612.612 0 0 1 .28-.498.22.22 0 0 1 .131-.03c.026-.001.29.087.79.266a39.822 39.822 0 0 1-.154-1.055c0-.087.029-.177.084-.27a.563.563 0 0 1 .197-.205zM54.54 56.426c.077-.044.143-.053.198-.023.056.028.085.085.085.172 0 .03-.05.438-.147 1.228.5-.756.76-1.147.786-1.175a.392.392 0 0 1 .131-.12c.1-.058.181-.05.245.02a.29.29 0 0 1 .038.14c0 .122-.043.24-.13.357l-.937.962.939-.123c.087.008.132.072.132.194 0 .05-.013.112-.037.184a.638.638 0 0 1-.254.308.227.227 0 0 1-.121.037c-.026.001-.288-.088-.79-.266.101.675.153 1.027.153 1.055a.521.521 0 0 1-.083.27.55.55 0 0 1-.198.204c-.074.043-.14.052-.195.022-.058-.027-.085-.085-.085-.172 0-.027.047-.437.145-1.227-.498.755-.76 1.147-.784 1.174a.462.462 0 0 1-.123.104c-.106.062-.19.056-.254-.014a.261.261 0 0 1-.037-.151.5.5 0 0 1 .13-.336l.937-.96-.939.12c-.088-.007-.132-.07-.132-.193a.612.612 0 0 1 .28-.498.22.22 0 0 1 .132-.03c.024-.001.288.087.788.266a34.711 34.711 0 0 1-.151-1.056c0-.087.026-.176.083-.27a.55.55 0 0 1 .196-.203zM58.452 54.168c.074-.043.14-.052.196-.022.057.027.084.085.085.172 0 .03-.048.437-.147 1.228.5-.756.76-1.147.785-1.175a.391.391 0 0 1 .132-.12c.1-.058.182-.052.245.02a.29.29 0 0 1 .037.14c0 .122-.043.24-.13.357l-.937.962.939-.123c.088.008.132.072.132.194 0 .05-.013.112-.036.184a.628.628 0 0 1-.253.307.234.234 0 0 1-.123.038c-.025 0-.287-.088-.79-.266.104.674.154 1.027.154 1.054a.509.509 0 0 1-.084.27.55.55 0 0 1-.195.204c-.076.044-.142.053-.198.023-.058-.027-.085-.085-.085-.172 0-.027.048-.437.147-1.228a56.56 56.56 0 0 1-.786 1.175.462.462 0 0 1-.123.104c-.106.062-.19.056-.253-.014a.261.261 0 0 1-.038-.152.5.5 0 0 1 .131-.335l.937-.96-.94.12c-.087-.007-.131-.07-.132-.193a.617.617 0 0 1 .28-.498.22.22 0 0 1 .133-.031c.023 0 .287.088.79.266a32.06 32.06 0 0 1-.154-1.055c0-.087.027-.176.084-.27a.551.551 0 0 1 .197-.204zM62.361 51.91c.074-.042.14-.051.196-.021.058.027.085.085.085.172 0 .03-.048.437-.147 1.228.5-.756.762-1.148.787-1.176a.377.377 0 0 1 .13-.12c.101-.058.183-.05.245.022a.27.27 0 0 1 .038.139c0 .122-.043.24-.13.357l-.937.962.938-.123c.088.008.132.071.133.194 0 .05-.012.111-.037.184a.628.628 0 0 1-.252.307.227.227 0 0 1-.122.037c-.025 0-.29-.088-.791-.265.103.674.153 1.027.153 1.054a.509.509 0 0 1-.084.27.55.55 0 0 1-.195.204c-.076.044-.142.053-.198.023-.055-.028-.084-.085-.085-.172 0-.027.05-.438.147-1.228-.5.756-.76 1.147-.785 1.175a.451.451 0 0 1-.122.103c-.108.063-.192.057-.255-.014a.277.277 0 0 1-.037-.15.5.5 0 0 1 .13-.336l.937-.96-.939.12c-.088-.007-.132-.07-.132-.193a.617.617 0 0 1 .28-.498.22.22 0 0 1 .132-.031c.025-.001.288.088.79.266a39.78 39.78 0 0 1-.154-1.055c0-.087.029-.177.084-.27a.551.551 0 0 1 .197-.204zM66.27 49.654c.075-.043.14-.052.198-.023.056.028.085.085.085.172 0 .03-.05.438-.147 1.228.498-.755.76-1.147.786-1.176a.377.377 0 0 1 .13-.12c.1-.058.182-.05.245.022a.27.27 0 0 1 .037.14c0 .122-.043.24-.13.357l-.937.962.939-.123c.088.008.132.071.132.193 0 .05-.011.112-.036.185a.628.628 0 0 1-.253.307.227.227 0 0 1-.122.037c-.025 0-.289-.088-.79-.266.102.675.154 1.027.154 1.054a.521.521 0 0 1-.084.27.562.562 0 0 1-.197.205c-.076.044-.141.053-.197.023-.056-.028-.085-.085-.085-.172 0-.028.05-.439.147-1.229-.5.757-.76 1.148-.786 1.176a.444.444 0 0 1-.121.103c-.106.061-.191.056-.254-.015a.258.258 0 0 1-.039-.15.5.5 0 0 1 .13-.335l.937-.96-.938.12c-.088-.007-.132-.07-.133-.193a.612.612 0 0 1 .28-.498.22.22 0 0 1 .133-.031c.025-.001.287.088.79.266a39.822 39.822 0 0 1-.154-1.055c0-.087.028-.177.084-.27a.55.55 0 0 1 .197-.204zM70.18 47.396c.074-.042.14-.051.198-.022.055.028.084.085.085.172 0 .029-.05.438-.147 1.228.498-.755.76-1.147.785-1.176a.38.38 0 0 1 .132-.12c.1-.058.18-.05.243.022a.27.27 0 0 1 .038.14c0 .122-.044.24-.13.356l-.936.962.939-.123c.086.008.13.072.13.194 0 .05-.011.112-.036.185a.628.628 0 0 1-.253.306.227.227 0 0 1-.121.038c-.025 0-.29-.088-.79-.267.102.676.153 1.028.154 1.055a.522.522 0 0 1-.084.27.562.562 0 0 1-.197.205c-.076.044-.14.052-.198.023-.056-.028-.085-.085-.085-.173 0-.027.05-.438.147-1.228-.498.756-.76 1.148-.785 1.176a.444.444 0 0 1-.122.103c-.106.061-.19.056-.253-.015a.258.258 0 0 1-.04-.15.5.5 0 0 1 .131-.335l.937-.96-.94.12c-.087-.007-.131-.07-.131-.193a.612.612 0 0 1 .28-.498.22.22 0 0 1 .132-.031c.025-.001.29.087.79.266a39.664 39.664 0 0 1-.154-1.055c0-.087.028-.177.084-.27a.556.556 0 0 1 .197-.205zM74.09 45.14c.075-.044.141-.053.197-.023.056.028.085.085.085.172 0 .029-.05.438-.147 1.228.498-.755.76-1.148.786-1.176a.38.38 0 0 1 .131-.12c.1-.058.18-.05.243.022.026.044.04.088.04.139 0 .122-.044.24-.131.357l-.937.962.94-.123c.087.007.131.071.132.193a.628.628 0 0 1-.29.492.227.227 0 0 1-.123.038c-.025 0-.289-.088-.79-.267.102.675.154 1.028.154 1.055a.522.522 0 0 1-.084.27.551.551 0 0 1-.197.205c-.074.043-.14.052-.197.023-.056-.028-.085-.085-.085-.173 0-.027.049-.438.146-1.228a47.91 47.91 0 0 1-.785 1.176.444.444 0 0 1-.121.103c-.107.061-.191.056-.254-.015a.261.261 0 0 1-.037-.15.5.5 0 0 1 .13-.337l.937-.96-.939.121c-.088-.007-.132-.071-.132-.193a.612.612 0 0 1 .28-.498.22.22 0 0 1 .13-.03c.026-.001.29.087.79.266a39.78 39.78 0 0 1-.153-1.055c0-.087.028-.177.083-.27a.563.563 0 0 1 .197-.205z" opacity="1" data-original="#324566" class=""></path><path fill="#162830" d="M28.948 84.507a.617.617 0 0 1-.308-1.15l6.076-3.514a.617.617 0 0 1 .615 1.067l-6.076 3.514a.613.613 0 0 1-.307.083zM38.542 78.957a.617.617 0 0 1-.308-1.15L55.67 67.723a.617.617 0 0 1 .615 1.067L38.849 78.874a.613.613 0 0 1-.307.083zM58.845 67.212a.617.617 0 0 1-.308-1.15l18.247-10.555a.617.617 0 0 1 .615 1.067L59.152 67.13a.613.613 0 0 1-.307.082zM28.948 91.59a.617.617 0 0 1-.308-1.15l20.063-11.604a.617.617 0 0 1 .615 1.067L29.255 91.508a.613.613 0 0 1-.307.083zM52.746 77.824a.617.617 0 0 1-.308-1.15l24.346-14.083a.617.617 0 0 1 .615 1.067L53.053 77.742a.613.613 0 0 1-.307.082z" opacity="1" data-original="#162830" class=""></path><path fill="#ffffff" d="M29.399 84.772a.617.617 0 0 1-.308-1.15l6.075-3.514a.617.617 0 0 1 .615 1.067l-6.075 3.515a.613.613 0 0 1-.307.082zM38.993 79.222a.617.617 0 0 1-.308-1.15l17.434-10.085a.617.617 0 0 1 .615 1.067L39.3 79.14a.613.613 0 0 1-.307.082zM59.295 67.478a.617.617 0 0 1-.308-1.15l18.248-10.556a.617.617 0 0 1 .615 1.067L59.602 67.395a.613.613 0 0 1-.307.083zM29.399 91.856a.617.617 0 0 1-.308-1.15l20.062-11.605a.617.617 0 0 1 .615 1.067L29.706 91.774a.613.613 0 0 1-.307.082zM53.196 78.09a.617.617 0 0 1-.308-1.15l24.347-14.084a.617.617 0 0 1 .615 1.067L53.503 78.007a.613.613 0 0 1-.307.083z" opacity="1" data-original="#ffffff" class=""></path></g></svg>