<svg id="Layer_1" enable-background="new 0 0 512 512" viewBox="0 0 512 512" xmlns="http://www.w3.org/2000/svg"><g><path d="m65.54 459.924c-3.827 0-6.917-3.09-6.917-6.888 0-3.827 3.09-6.917 6.917-6.917h432.567c3.799 0 6.888 3.09 6.888 6.917 0 3.798-3.089 6.888-6.888 6.888z" fill="#837683"/><g clip-rule="evenodd" fill-rule="evenodd"><path d="m246.221 71.918h216.425v356.088h-216.425z" fill="#3abeff"/><path d="m314.536 340.728h111.742v87.279h-111.742z" fill="#d1d1d6"/><path d="m100.973 200.469h187.03v227.537h-187.03z" fill="#837683"/><path d="m350.96 103.411h75.317v33.024h-75.317z" fill="#d1d1d6"/><path d="m350.96 161.408h75.317v33.024h-75.317z" fill="#d1d1d6"/><path d="m350.96 219.405h75.317v33.024h-75.317z" fill="#d1d1d6"/><path d="m350.96 277.401h75.317v33.024h-75.317z" fill="#d1d1d6"/></g><path d="m307.619 112.737c0-3.827 3.089-6.917 6.917-6.917 3.798 0 6.888 3.09 6.888 6.917v188.362c0 3.827-3.09 6.917-6.888 6.917-3.827 0-6.917-3.09-6.917-6.917z" fill="#d1d1d6"/><path d="m281.398 112.737c0-3.827 3.09-6.917 6.917-6.917 3.798 0 6.888 3.09 6.888 6.917v62.391c0 3.827-3.09 6.917-6.888 6.917-3.827 0-6.917-3.09-6.917-6.917z" fill="#d1d1d6"/><path clip-rule="evenodd" d="m284.375 47.257h140.116v24.661h-140.116z" fill="#837683" fill-rule="evenodd"/><path clip-rule="evenodd" d="m120.05 394.274c-62.277 0-113.045 15.817-113.045 35.235 0 19.417 50.769 35.235 113.045 35.235 62.249 0 113.018-15.817 113.018-35.235s-50.769-35.235-113.018-35.235z" fill="#3abeff" fill-rule="evenodd"/><path clip-rule="evenodd" d="m120.05 188.62c44.192 0 80.022 35.83 80.022 80.022 0 14.088-3.657 27.326-10.063 38.835l-22.989 40.677-46.97 81.354-46.999-81.354-22.989-40.677c-6.633-11.906-10.035-25.2-10.035-38.835.001-44.192 35.803-80.022 80.023-80.022z" fill="#ff3c38" fill-rule="evenodd"/><path clip-rule="evenodd" d="m120.05 305.861c20.353 0 36.964-16.611 36.964-36.964s-16.611-36.964-36.964-36.964c-20.381 0-36.964 16.611-36.964 36.964s16.583 36.964 36.964 36.964z" fill="#d1d1d6" fill-rule="evenodd"/><path clip-rule="evenodd" d="m223.713 227.909h40.621v89.518h-40.621z" fill="#d1d1d6" fill-rule="evenodd"/><path clip-rule="evenodd" d="m223.713 342.938h40.621v36.765h-40.621z" fill="#d1d1d6" fill-rule="evenodd"/></g></svg>