<svg id="Layer_1" enable-background="new 0 0 512 512" height="512" viewBox="0 0 512 512" width="512" xmlns="http://www.w3.org/2000/svg"><path d="m20 0h472v480h-472z" fill="#f29a2e"/><g fill="#6ed1f7"><path d="m304 44h144v388h-144z"/><path d="m64 44h160v388h-160z"/></g><path d="m252 0h8v512h-8z" fill="#fad7ab"/><path d="m512 489.45v5.1c0 9.62-7.83 17.45-17.45 17.45h-477.1c-9.62 0-17.45-7.83-17.45-17.45v-5.1c0-9.62 7.83-17.45 17.45-17.45h477.1c9.62 0 17.45 7.83 17.45 17.45z" fill="#d94929"/><g fill="#fad7ab"><path d="m90.26 166.51c1.024 0 2.047-.391 2.829-1.171l90.51-90.51c1.562-1.563 1.562-4.095 0-5.657-1.563-1.562-4.095-1.562-5.657 0l-90.51 90.51c-1.562 1.563-1.562 4.095 0 5.657.78.78 1.804 1.171 2.828 1.171z"/><path d="m160.971 123.632c-1.563-1.562-4.095-1.562-5.657 0l-73.539 73.539c-1.562 1.563-1.562 4.095 0 5.657.781.781 1.805 1.171 2.829 1.171s2.047-.391 2.829-1.171l73.539-73.539c1.561-1.562 1.561-4.094-.001-5.657z"/><path d="m386.368 312.632c-1.563-1.562-4.095-1.562-5.657 0l-73.539 73.539c-1.562 1.563-1.562 4.095 0 5.657.781.781 1.805 1.171 2.829 1.171s2.047-.391 2.829-1.171l73.539-73.539c1.561-1.562 1.561-4.094-.001-5.657z"/><path d="m419.965 306.426-50.912 50.912c-1.562 1.563-1.562 4.095 0 5.657.781.781 1.805 1.171 2.829 1.171s2.047-.391 2.829-1.171l50.912-50.912c1.562-1.563 1.562-4.095 0-5.657-1.563-1.561-4.095-1.561-5.658 0z"/><path d="m444.338 80.721c-1.563-1.562-4.095-1.562-5.657 0l-67.882 67.882c-1.562 1.563-1.562 4.095 0 5.657.781.781 1.805 1.171 2.829 1.171s2.047-.391 2.829-1.171l67.882-67.882c1.561-1.563 1.561-4.095-.001-5.657z"/><path d="m421.054 137.289-67.882 67.882c-1.562 1.563-1.562 4.095 0 5.657.781.781 1.805 1.171 2.829 1.171s2.047-.391 2.829-1.171l67.882-67.882c1.562-1.563 1.562-4.095 0-5.657-1.564-1.561-4.096-1.561-5.658 0z"/><path d="m189.171 293.721-67.882 67.882c-1.562 1.563-1.562 4.095 0 5.657.781.781 1.805 1.171 2.829 1.171s2.047-.391 2.829-1.171l67.882-67.882c1.562-1.563 1.562-4.095 0-5.657-1.563-1.562-4.095-1.562-5.658 0z"/><path d="m166.544 350.289-67.882 67.882c-1.562 1.563-1.562 4.095 0 5.657.781.781 1.805 1.171 2.829 1.171s2.047-.391 2.829-1.171l67.882-67.882c1.562-1.563 1.562-4.095 0-5.657-1.563-1.561-4.096-1.561-5.658 0z"/></g><g><path d="m284 276c-2.209 0-4-1.791-4-4v-24c0-2.209 1.791-4 4-4h53c2.209 0 4 1.791 4 4s-1.791 4-4 4h-49v20c0 2.209-1.791 4-4 4z" fill="#733729"/></g></svg>